HIERARCHY
ROOT Junyuan_V1:Solving:Hips
{
	OFFSET 0.000000 0.000000 0.000000
	CHANNELS 6 Xposition Yposition Zposition Xrotation Yrotation Zrotation
	JOINT Junyuan_V1:Solving:Spine
	{
		OFFSET 0.000000 -11.587388 2.561626
		CHANNELS 6 Xposition Yposition Zposition Xrotation Yrotation Zrotation
		JOINT Junyuan_V1:Solving:Spine1
		{
			OFFSET 0.000000 -9.293384 1.638677
			CHANNELS 6 Xposition Yposition Zposition Xrotation Yrotation Zrotation
			JOINT Junyuan_V1:Solving:Spine2
			{
				OFFSET 0.000000 -9.400841 0.822469
				CHANNELS 6 Xposition Yposition Zposition Xrotation Yrotation Zrotation
				JOINT Junyuan_V1:Solving:Spine3
				{
					OFFSET 0.000000 -9.436749 0.000000
					CHANNELS 6 Xposition Yposition Zposition Xrotation Yrotation Zrotation
					JOINT Junyuan_V1:Solving:Neck
					{
						OFFSET 0.000000 -12.132965 -1.213294
						CHANNELS 6 Xposition Yposition Zposition Xrotation Yrotation Zrotation
						JOINT Junyuan_V1:Solving:Neck1
						{
							OFFSET 0.000000 -6.347839 -0.555364
							CHANNELS 6 Xposition Yposition Zposition Xrotation Yrotation Zrotation
							JOINT Junyuan_V1:Solving:Head
							{
								OFFSET 0.000000 -6.275284 -1.106502
								CHANNELS 6 Xposition Yposition Zposition Xrotation Yrotation Zrotation
								JOINT Junyuan_V1:Solving:HeadEnd
								{
									OFFSET 0.000000 -9.728081 0.000002
									CHANNELS 6 Xposition Yposition Zposition Xrotation Yrotation Zrotation
									End Site
									{
										OFFSET 0.000000 -9.728081 0.000002
									}
								}
							}
						}
					}
					JOINT Junyuan_V1:Solving:RightShoulder
					{
						OFFSET 0.000000 -8.666405 -5.270916
						CHANNELS 6 Xposition Yposition Zposition Xrotation Yrotation Zrotation
						JOINT Junyuan_V1:Solving:RightArm
						{
							OFFSET -19.077805 -0.000008 0.000000
							CHANNELS 6 Xposition Yposition Zposition Xrotation Yrotation Zrotation
							JOINT Junyuan_V1:Solving:RightForeArm
							{
								OFFSET -27.209019 -0.000008 0.000000
								CHANNELS 6 Xposition Yposition Zposition Xrotation Yrotation Zrotation
								JOINT Junyuan_V1:Solving:RightHand
								{
									OFFSET -21.734264 -0.000008 0.000000
									CHANNELS 6 Xposition Yposition Zposition Xrotation Yrotation Zrotation
									JOINT Junyuan_V1:Solving:RightHandThumb1
									{
										OFFSET -3.883522 2.884647 -2.887744
										CHANNELS 6 Xposition Yposition Zposition Xrotation Yrotation Zrotation
										End Site
										{
											OFFSET -5.627335 0.000000 -5.679366
										}
									}
									JOINT Junyuan_V1:Solving:RightHandMiddle1
									{
										OFFSET -10.356049 -0.000004 0.066385
										CHANNELS 6 Xposition Yposition Zposition Xrotation Yrotation Zrotation
										End Site
										{
											OFFSET -7.995132 -0.000004 0.000000
										}
									}
								}
							}
						}
					}
					JOINT Junyuan_V1:Solving:LeftShoulder
					{
						OFFSET 0.000000 -8.666405 -5.270916
						CHANNELS 6 Xposition Yposition Zposition Xrotation Yrotation Zrotation
						JOINT Junyuan_V1:Solving:LeftArm
						{
							OFFSET 19.077805 -0.000008 0.000000
							CHANNELS 6 Xposition Yposition Zposition Xrotation Yrotation Zrotation
							JOINT Junyuan_V1:Solving:LeftForeArm
							{
								OFFSET 27.209019 -0.000008 0.000000
								CHANNELS 6 Xposition Yposition Zposition Xrotation Yrotation Zrotation
								JOINT Junyuan_V1:Solving:LeftHand
								{
									OFFSET 21.734264 -0.000008 0.000000
									CHANNELS 6 Xposition Yposition Zposition Xrotation Yrotation Zrotation
									JOINT Junyuan_V1:Solving:LeftHandThumb1
									{
										OFFSET 3.883522 2.884647 -2.887744
										CHANNELS 6 Xposition Yposition Zposition Xrotation Yrotation Zrotation
										End Site
										{
											OFFSET 5.627335 0.000000 -5.679366
										}
									}
									JOINT Junyuan_V1:Solving:LeftHandMiddle1
									{
										OFFSET 10.356049 -0.000004 0.066385
										CHANNELS 6 Xposition Yposition Zposition Xrotation Yrotation Zrotation
										End Site
										{
											OFFSET 7.995132 -0.000004 0.000000
										}
									}
								}
							}
						}
					}
				}
			}
		}
	}
	JOINT Junyuan_V1:Solving:RightUpLeg
	{
		OFFSET -10.145194 0.000000 0.000000
		CHANNELS 6 Xposition Yposition Zposition Xrotation Yrotation Zrotation
		JOINT Junyuan_V1:Solving:RightLeg
		{
			OFFSET 0.000000 45.059078 -0.000006
			CHANNELS 6 Xposition Yposition Zposition Xrotation Yrotation Zrotation
			JOINT Junyuan_V1:Solving:RightFoot
			{
				OFFSET 0.000000 37.058613 -0.000006
				CHANNELS 6 Xposition Yposition Zposition Xrotation Yrotation Zrotation
				JOINT Junyuan_V1:Solving:RightForeFoot
				{
					OFFSET 0.000000 3.397476 -0.000000
					CHANNELS 6 Xposition Yposition Zposition Xrotation Yrotation Zrotation
					JOINT Junyuan_V1:Solving:RightToeBase
					{
						OFFSET 0.000000 0.000000 -13.305598
						CHANNELS 6 Xposition Yposition Zposition Xrotation Yrotation Zrotation
						JOINT Junyuan_V1:Solving:RightToeBaseEnd
						{
							OFFSET 0.000000 0.000000 -4.190945
							CHANNELS 6 Xposition Yposition Zposition Xrotation Yrotation Zrotation
							End Site
							{
								OFFSET 0.000000 -4.190948 0.000000
							}
						}
					}
				}
			}
		}
	}
	JOINT Junyuan_V1:Solving:LeftUpLeg
	{
		OFFSET 10.145194 0.000000 0.000000
		CHANNELS 6 Xposition Yposition Zposition Xrotation Yrotation Zrotation
		JOINT Junyuan_V1:Solving:LeftLeg
		{
			OFFSET 0.000000 45.059078 -0.000006
			CHANNELS 6 Xposition Yposition Zposition Xrotation Yrotation Zrotation
			JOINT Junyuan_V1:Solving:LeftFoot
			{
				OFFSET 0.000000 37.058613 -0.000006
				CHANNELS 6 Xposition Yposition Zposition Xrotation Yrotation Zrotation
				JOINT Junyuan_V1:Solving:LeftForeFoot
				{
					OFFSET 0.000000 3.397476 -0.000000
					CHANNELS 6 Xposition Yposition Zposition Xrotation Yrotation Zrotation
					JOINT Junyuan_V1:Solving:LeftToeBase
					{
						OFFSET 0.000000 0.000000 -13.305598
						CHANNELS 6 Xposition Yposition Zposition Xrotation Yrotation Zrotation
						JOINT Junyuan_V1:Solving:LeftToeBaseEnd
						{
							OFFSET 0.000000 0.000000 -4.652039
							CHANNELS 6 Xposition Yposition Zposition Xrotation Yrotation Zrotation
							End Site
							{
								OFFSET 0.000000 -4.652039 0.000000
							}
						}
					}
				}
			}
		}
	}
}
MOTION
Frames: 5
Frame Time: 0.041667
-26.045795 29.409224 -88.226051 95.037964 -169.461419 2.402661 0.000003 -11.587395 2.561621 15.258950 0.800646 -0.829872 0.000001 -9.293389 1.638669 1.043774 -0.117030 -0.119618 -0.000004 -9.400834 0.822463 -2.965181 -2.401251 0.562254 0.000004 -9.436746 -0.000008 -1.231369 -1.779427 0.767408 -0.000000 -12.132960 -1.213305 -6.976246 4.100082 -1.299566 -0.000000 -6.347856 -0.555365 -3.672927 -0.923567 3.422636 0.000002 -6.275268 -1.106502 -1.048678 -0.950948 3.499234 -0.000002 -9.728088 -0.000002 0.000001 -0.000001 0.000000 -0.000000 -8.666389 -5.270928 -0.000003 21.178704 8.188916 -19.077810 0.000019 0.000000 -13.199759 -4.769724 -62.450346 -27.209023 -0.000031 0.000002 2.167367 -4.533907 0.171410 -21.734243 -0.000004 -0.000003 0.740965 -3.548440 11.802586 -3.883525 2.884641 -2.887743 0.000007 -0.000000 -0.000003 -10.356052 -0.000010 0.066385 0.000004 0.000002 -0.000004 -0.000007 -8.666389 -5.270929 -0.000006 -23.019300 -10.086198 19.077793 0.000016 -0.000003 -2.799754 27.931048 57.760868 27.209011 -0.000007 -0.000010 13.703435 12.617228 -3.048883 21.734251 -0.000011 -0.000015 -1.237560 -3.774911 -18.166119 3.883540 2.884648 -2.887746 -0.000003 -0.000002 -0.000006 10.356050 -0.000013 0.066390 0.000001 -0.000003 0.000003 -10.145192 -0.000008 0.000000 -6.208560 11.343976 4.823174 -0.000003 45.059078 -0.000012 22.293637 0.000001 -0.000002 0.000006 37.058609 -0.000012 -3.090657 1.658386 14.915113 0.000002 3.397476 0.000002 -0.000003 0.000003 0.000003 -0.000002 -0.000002 -13.305598 3.240255 0.000003 0.000002 0.000002 -0.000001 -4.190948 -0.000002 0.000001 0.000001 10.145202 -0.000005 -0.000000 11.198238 -16.477136 0.999401 -0.000010 45.059090 0.000001 0.930399 0.000000 -0.000000 -0.000007 37.058594 0.000004 -6.899412 -8.583645 7.159235 -0.000000 3.397484 0.000004 0.000000 0.000001 0.000002 0.000006 0.000003 -13.305596 13.461803 0.000000 -0.000002 -0.000011 -0.000015 -4.652039 0.000001 0.000001 -0.000002 
-26.011236 29.365232 -88.239136 95.081431 -169.195643 2.582600 0.000002 -11.587383 2.561625 15.258359 0.769145 -0.942852 -0.000004 -9.293400 1.638676 1.060172 -0.113019 -0.130749 0.000001 -9.400828 0.822465 -2.938098 -2.380976 0.551155 0.000004 -9.436751 -0.000003 -1.198768 -1.762103 0.748080 -0.000006 -12.132970 -1.213301 -6.998402 4.053090 -1.309512 0.000000 -6.347870 -0.555370 -3.670882 -0.954704 3.443413 -0.000003 -6.275302 -1.106492 -1.070356 -0.961520 3.527712 -0.000001 -9.728119 -0.000003 0.000000 0.000002 -0.000001 -0.000001 -8.666367 -5.270928 -0.000003 21.096825 8.022273 -19.077806 -0.000006 0.000003 -12.492927 -5.813573 -63.363945 -27.209024 -0.000014 -0.000003 1.667839 -4.539873 0.132050 -21.734255 0.000005 0.000000 0.720723 -3.469399 11.743070 -3.883489 2.884657 -2.887750 0.000002 -0.000002 0.000003 -10.356034 -0.000006 0.066386 0.000002 0.000001 0.000008 -0.000004 -8.666367 -5.270928 -0.000006 -22.962633 -9.773046 19.077808 0.000019 -0.000005 -2.754158 28.287170 58.612490 27.209036 -0.000028 -0.000006 13.472486 12.674623 -3.009008 21.734247 -0.000006 0.000007 -1.235542 -3.753012 -18.237083 3.883520 2.884653 -2.887760 -0.000002 0.000009 -0.000002 10.356078 -0.000027 0.066380 0.000003 0.000000 -0.000001 -10.145193 0.000003 -0.000002 -6.536410 12.025517 4.465332 0.000000 45.059078 -0.000012 22.830725 -0.000002 -0.000003 0.000004 37.058609 -0.000006 -3.087677 1.861117 15.574607 -0.000000 3.397484 0.000006 -0.000000 0.000000 -0.000001 -0.000001 -0.000008 -13.305607 3.684794 -0.000003 0.000001 0.000002 0.000001 -4.190943 -0.000001 0.000000 -0.000004 10.145193 0.000018 -0.000001 11.257709 -16.666645 0.868241 0.000008 45.059093 -0.000009 0.922184 0.000000 0.000000 0.000003 37.058601 -0.000012 -6.955142 -8.736046 7.161564 -0.000007 3.397483 0.000005 -0.000000 -0.000002 -0.000001 -0.000000 0.000000 -13.305603 13.457803 -0.000000 0.000001 -0.000011 0.000008 -4.652041 -0.000000 -0.000002 -0.000001 
-25.968687 29.313120 -88.253822 95.138955 -168.950726 2.763146 0.000003 -11.587400 2.561631 15.259592 0.745276 -1.047167 0.000001 -9.293383 1.638685 1.077006 -0.108653 -0.138176 -0.000002 -9.400848 0.822469 -2.906734 -2.339121 0.532780 0.000001 -9.436759 -0.000003 -1.166316 -1.742960 0.729500 0.000003 -12.132939 -1.213287 -7.010917 3.992313 -1.298752 -0.000000 -6.347871 -0.555368 -3.668592 -1.025373 3.457985 -0.000001 -6.275292 -1.106501 -1.071861 -0.965556 3.522619 -0.000004 -9.728081 0.000000 0.000001 -0.000001 -0.000002 0.000005 -8.666382 -5.270903 -0.000004 20.994968 7.866881 -19.077806 0.000025 0.000007 -12.131043 -6.411140 -64.335833 -27.209036 -0.000002 -0.000005 1.874296 -4.335788 0.141749 -21.734266 -0.000011 0.000003 0.716085 -3.441643 11.760921 -3.883500 2.884626 -2.887751 0.000004 -0.000009 -0.000002 -10.356048 -0.000023 0.066390 0.000000 -0.000000 0.000002 0.000001 -8.666382 -5.270904 -0.000006 -22.903953 -9.517866 19.077808 0.000002 -0.000008 -2.802313 28.552134 59.561107 27.209044 0.000018 -0.000012 13.331584 12.708114 -2.984153 21.734257 -0.000002 0.000004 -1.236779 -3.747022 -18.281305 3.883522 2.884638 -2.887752 0.000004 0.000000 -0.000000 10.356064 -0.000039 0.066387 -0.000003 0.000001 -0.000000 -10.145195 -0.000007 -0.000000 -6.797481 12.815387 4.100948 0.000001 45.059086 -0.000015 23.296872 -0.000002 -0.000000 0.000009 37.058609 -0.000011 -3.100259 2.025527 16.162126 -0.000001 3.397476 0.000010 -0.000001 -0.000000 0.000001 -0.000001 -0.000008 -13.305605 3.929366 0.000003 0.000004 -0.000001 -0.000001 -4.190940 -0.000002 -0.000003 -0.000002 10.145199 -0.000010 -0.000001 11.307709 -16.863723 0.725437 -0.000001 45.059086 -0.000017 0.967989 -0.000001 -0.000000 -0.000005 37.058609 -0.000000 -7.039537 -8.863004 7.142328 0.000004 3.397476 -0.000003 -0.000000 0.000001 0.000001 -0.000011 0.000008 -13.305602 13.479188 0.000002 -0.000001 -0.000015 0.000000 -4.652041 0.000001 0.000000 -0.000002 
-25.921602 29.244349 -88.268654 95.211041 -168.698678 2.932210 -0.000013 -11.587396 2.561625 15.262377 0.734195 -1.137428 0.000005 -9.293386 1.638685 1.083158 -0.105185 -0.150165 -0.000001 -9.400847 0.822460 -2.883317 -2.302183 0.513240 0.000000 -9.436747 -0.000003 -1.129565 -1.724679 0.705205 0.000005 -12.132965 -1.213296 -7.001232 3.934283 -1.246037 0.000003 -6.347815 -0.555367 -3.667630 -1.075195 3.429762 0.000000 -6.275297 -1.106497 -1.069881 -0.971666 3.528918 0.000003 -9.728058 -0.000000 0.000001 -0.000000 -0.000003 0.000003 -8.666359 -5.270918 -0.000008 20.909253 7.760135 -19.077810 0.000011 -0.000005 -11.737069 -7.073958 -65.304409 -27.209024 -0.000014 0.000002 1.919113 -4.214910 0.141106 -21.734272 -0.000009 -0.000004 0.699832 -3.409785 11.605635 -3.883528 2.884679 -2.887753 -0.000002 -0.000002 0.000002 -10.356037 0.000017 0.066385 0.000002 0.000003 -0.000004 0.000000 -8.666374 -5.270916 -0.000008 -22.857088 -9.287668 19.077810 -0.000017 0.000003 -2.884657 28.773739 60.548746 27.209015 -0.000014 -0.000009 13.206859 12.737084 -2.961890 21.734274 -0.000009 -0.000011 -1.237563 -3.751014 -18.273975 3.883530 2.884650 -2.887754 0.000001 0.000000 -0.000000 10.356050 -0.000006 0.066384 0.000000 0.000002 0.000002 -10.145204 -0.000006 -0.000001 -6.963882 13.614553 3.731053 0.000003 45.059093 -0.000011 23.677988 0.000000 0.000000 -0.000000 37.058590 -0.000010 -3.252327 2.245749 16.410518 0.000000 3.397484 -0.000001 -0.000003 0.000001 -0.000000 0.000003 -0.000011 -13.305607 4.205194 0.000001 -0.000000 -0.000001 -0.000000 -4.190948 -0.000000 -0.000001 0.000002 10.145178 0.000004 -0.000002 11.390822 -17.058153 0.598022 -0.000002 45.059093 -0.000002 1.007829 -0.000000 0.000000 -0.000002 37.058620 -0.000011 -7.108155 -8.981635 7.119550 -0.000002 3.397476 0.000009 -0.000000 0.000000 0.000002 0.000004 -0.000019 -13.305601 13.465488 -0.000000 -0.000000 -0.000002 -0.000000 -4.652040 0.000000 -0.000000 -0.000003 
-25.867130 29.177492 -88.288910 95.294055 -168.499046 3.104885 0.000000 -11.587381 2.561621 15.286981 0.715802 -1.233995 0.000004 -9.293387 1.638672 1.097066 -0.101065 -0.162616 0.000002 -9.400834 0.822464 -2.865385 -2.233271 0.490138 -0.000000 -9.436764 0.000004 -1.115815 -1.702793 0.690150 -0.000004 -12.132934 -1.213284 -6.982795 3.909901 -1.233116 0.000001 -6.347837 -0.555369 -3.662242 -1.126860 3.452826 -0.000000 -6.275316 -1.106499 -1.080784 -0.973384 3.522062 -0.000003 -9.728065 0.000004 0.000000 -0.000001 -0.000001 -0.000001 -8.666397 -5.270913 -0.000008 20.834765 7.649484 -19.077806 -0.000013 -0.000006 -11.377925 -7.631775 -66.265327 -27.209036 0.000002 0.000001 2.191621 -4.137458 0.158211 -21.734283 -0.000011 0.000001 0.674030 -3.331235 11.445261 -3.883520 2.884647 -2.887746 0.000003 -0.000009 -0.000007 -10.356050 -0.000024 0.066383 0.000000 0.000001 -0.000002 -0.000006 -8.666393 -5.270912 -0.000009 -22.796523 -9.091596 19.077803 0.000010 -0.000007 -2.989196 29.032102 61.553986 27.209009 0.000004 -0.000002 13.002192 12.748712 -2.917052 21.734274 -0.000009 -0.000011 -1.238421 -3.762657 -18.233084 3.883512 2.884640 -2.887763 -0.000006 0.000003 -0.000003 10.356042 -0.000029 0.066380 0.000001 -0.000000 0.000001 -10.145190 0.000014 -0.000006 -7.070159 14.574719 3.350144 -0.000004 45.059063 -0.000011 23.990696 0.000002 -0.000002 0.000004 37.058598 -0.000014 -3.417213 2.364680 16.645110 0.000001 3.397476 0.000000 0.000001 -0.000001 0.000000 0.000001 -0.000001 -13.305604 4.619826 0.000003 0.000004 -0.000000 0.000000 -4.190948 -0.000001 0.000001 -0.000001 10.145190 0.000013 -0.000006 11.450870 -17.233722 0.447720 0.000008 45.059082 -0.000007 1.098671 0.000000 -0.000000 -0.000007 37.058613 -0.000006 -7.187394 -9.073361 7.083205 0.000004 3.397476 -0.000004 -0.000000 0.000001 0.000000 -0.000001 -0.000008 -13.305599 13.427938 0.000002 -0.000002 -0.000004 -0.000000 -4.652032 0.000001 0.000001 -0.000003 
